<svg width="55" height="42" viewBox="0 0 55 42" fill="none" xmlns="http://www.w3.org/2000/svg">
<path d="M45 0H10C4.47715 0 0 4.47715 0 10V32C0 37.5228 4.47715 42 10 42H45C50.5228 42 55 37.5228 55 32V10C55 4.47715 50.5228 0 45 0Z" fill="url(#paint0_linear_203_4150)"/>
<path d="M16.8926 20.7864C18.8115 20.3922 20.747 20.2772 22.6658 20.3593C24.0341 20.4251 25.4023 20.5893 26.7371 20.8522C27.4046 20.9836 28.072 21.1314 28.7227 21.2957C36.1478 23.1848 42.5885 27.4066 45.6753 29.7064C45.8755 29.8542 46.1091 29.5914 45.9423 29.4107C43.3226 26.8152 37.7663 22.1499 30.0075 19.8994C29.3401 19.7023 28.656 19.538 27.9552 19.3737C26.7371 19.1109 25.469 18.8973 24.1676 18.7659C23.8672 18.7331 23.5669 18.7166 23.2665 18.7166C20.9639 18.7166 18.8115 19.5544 16.8926 20.7864Z" fill="#000D1C"/>
<path d="M24.3519 21.0492C24.3519 21.0492 13.4729 19.735 8 31.4968C8 31.4968 19.0125 30.9547 24.3519 21.0492Z" fill="#000D1C"/>
<path d="M25.1695 21.23C25.1695 21.23 19.997 25.9117 21.5988 37C21.5988 37 28.4899 30.4292 25.1695 21.23Z" fill="#000D1C"/>
<path d="M25.3359 18.2074C25.3359 18.2074 26.1369 10.848 32.8111 5C32.7944 5 33.5453 15.4476 25.3359 18.2074Z" fill="#000D1C"/>
<path d="M41.8721 13.3285C41.8721 13.3285 32.7784 11.883 26.9551 18.5852C26.9718 18.6016 34.5972 19.9651 41.8721 13.3285Z" fill="#000D1C"/>
<defs>
<linearGradient id="paint0_linear_203_4150" x1="55" y1="3.36" x2="1.96352" y2="42.3687" gradientUnits="userSpaceOnUse">
<stop stop-color="#59C8FF"/>
<stop offset="1" stop-color="#039BE5"/>
</linearGradient>
</defs>
</svg>
